<svg xmlns="http://www.w3.org/2000/svg" xmlns:xlink="http://www.w3.org/1999/xlink" width="500" zoomAndPan="magnify" viewBox="0 0 375 374.999991" height="500" preserveAspectRatio="xMidYMid meet" version="1.0"><defs><filter x="0%" y="0%" width="100%" height="100%" id="e88e652d51"><feColorMatrix values="0 0 0 0 1 0 0 0 0 1 0 0 0 0 1 0 0 0 1 0" color-interpolation-filters="sRGB"/></filter><clipPath id="4256fbacd4"><path d="M 0 40 L 364 40 L 364 345.816406 L 0 345.816406 Z M 0 40 " clip-rule="nonzero"/></clipPath><mask id="287c726cbe"><g filter="url(#e88e652d51)"><rect x="-37.5" width="450" fill="#000000" y="-37.499999" height="449.999989" fill-opacity="0.3"/></g></mask><clipPath id="c99b2c63d3"><path d="M 0 1 L 363.839844 1 L 363.839844 305.816406 L 0 305.816406 Z M 0 1 " clip-rule="nonzero"/></clipPath><clipPath id="caf6a9ea60"><rect x="0" width="364" y="0" height="306"/></clipPath><clipPath id="df8d6b35ef"><path d="M 11 29.316406 L 375 29.316406 L 375 334 L 11 334 Z M 11 29.316406 " clip-rule="nonzero"/></clipPath><clipPath id="c4eec1d7fd"><path d="M 11 29.316406 L 375 29.316406 L 375 334 L 11 334 Z M 11 29.316406 " clip-rule="nonzero"/></clipPath><mask id="d233f91e1b"><g filter="url(#e88e652d51)"><rect x="-37.5" width="450" fill="#000000" y="-37.499999" height="449.999989" fill-opacity="0.5"/></g></mask><clipPath id="40e5112639"><path d="M 0.160156 1 L 94.960938 1 L 94.960938 95 L 0.160156 95 Z M 0.160156 1 " clip-rule="nonzero"/></clipPath><clipPath id="cfbd40d10b"><rect x="0" width="95" y="0" height="96"/></clipPath><mask id="aed9bf1d1d"><g filter="url(#e88e652d51)"><rect x="-37.5" width="450" fill="#000000" y="-37.499999" height="449.999989" fill-opacity="0.3"/></g></mask><clipPath id="3383bd9cc9"><path d="M 1 1 L 118.960938 1 L 118.960938 165.28125 L 1 165.28125 Z M 1 1 " clip-rule="nonzero"/></clipPath><clipPath id="a8eb4bab02"><rect x="0" width="119" y="0" height="166"/></clipPath><mask id="55f821cc4e"><g filter="url(#e88e652d51)"><rect x="-37.5" width="450" fill="#000000" y="-37.499999" height="449.999989" fill-opacity="0.3"/></g></mask><clipPath id="6d6169b2c8"><path d="M 0.28125 1 L 317 1 L 317 282.558594 L 0.28125 282.558594 Z M 0.28125 1 " clip-rule="nonzero"/></clipPath><clipPath id="1a90b94fab"><rect x="0" width="318" y="0" height="283"/></clipPath><mask id="182a1fffa5"><g filter="url(#e88e652d51)"><rect x="-37.5" width="450" fill="#000000" y="-37.499999" height="449.999989" fill-opacity="0.9"/></g></mask><clipPath id="3f23001962"><path d="M 1 1 L 118.28125 1 L 118.28125 224.28125 L 1 224.28125 Z M 1 1 " clip-rule="nonzero"/></clipPath><clipPath id="b17f0145af"><rect x="0" width="119" y="0" height="225"/></clipPath><mask id="be5ad4930e"><g filter="url(#e88e652d51)"><rect x="-37.5" width="450" fill="#000000" y="-37.499999" height="449.999989" fill-opacity="0.4"/></g></mask><clipPath id="d06a3d9c5a"><path d="M 1 1 L 118.839844 1 L 118.839844 282.558594 L 1 282.558594 Z M 1 1 " clip-rule="nonzero"/></clipPath><clipPath id="ebee7eebd6"><rect x="0" width="119" y="0" height="283"/></clipPath><mask id="bf379a98f9"><g filter="url(#e88e652d51)"><rect x="-37.5" width="450" fill="#000000" y="-37.499999" height="449.999989" fill-opacity="0.6"/></g></mask><clipPath id="976796cc4a"><path d="M 0.441406 0.441406 L 47.960938 0.441406 L 47.960938 47.960938 L 0.441406 47.960938 Z M 0.441406 0.441406 " clip-rule="nonzero"/></clipPath><clipPath id="9e73d3c887"><rect x="0" width="48" y="0" height="48"/></clipPath><mask id="7ad2f47492"><g filter="url(#e88e652d51)"><rect x="-37.5" width="450" fill="#000000" y="-37.499999" height="449.999989" fill-opacity="0.2"/></g></mask><clipPath id="3148fb44e1"><path d="M 1 1 L 59.960938 1 L 59.960938 25 L 1 25 Z M 1 1 " clip-rule="nonzero"/></clipPath><clipPath id="bc731bccc1"><rect x="0" width="60" y="0" height="26"/></clipPath></defs><g clip-path="url(#4256fbacd4)"><g mask="url(#287c726cbe)"><g transform="matrix(1, 0, 0, 1, 0, 40)"><g clip-path="url(#caf6a9ea60)"><g clip-path="url(#c99b2c63d3)"><path fill="#000000" d="M 351.527344 71.332031 L 351.527344 59.617188 L 339.8125 59.617188 L 339.8125 47.898438 L 281.230469 47.898438 L 281.230469 36.183594 L 269.515625 36.183594 L 269.515625 24.46875 L 257.796875 24.46875 L 257.796875 12.75 L 246.082031 12.75 L 246.082031 1.035156 L 117.203125 1.035156 L 117.203125 12.75 L 105.484375 12.75 L 105.484375 24.46875 L 93.769531 24.46875 L 93.769531 36.183594 L 82.054688 36.183594 L 82.054688 47.898438 L 23.472656 47.898438 L 23.472656 59.617188 L 11.753906 59.617188 L 11.753906 71.332031 L 0.0390625 71.332031 L 0.0390625 282.226562 L 11.753906 282.226562 L 11.753906 293.941406 L 23.472656 293.941406 L 23.472656 305.660156 L 339.8125 305.660156 L 339.8125 293.941406 L 351.527344 293.941406 L 351.527344 282.226562 L 363.246094 282.226562 L 363.246094 71.332031 Z M 351.527344 71.332031 " fill-opacity="1" fill-rule="nonzero"/></g></g></g></g></g><g clip-path="url(#df8d6b35ef)"><path fill="#000000" d="M 363.246094 99.617188 L 363.246094 87.898438 L 351.527344 87.898438 L 351.527344 76.183594 L 292.945312 76.183594 L 292.945312 64.46875 L 281.230469 64.46875 L 281.230469 52.75 L 269.515625 52.75 L 269.515625 41.035156 L 257.796875 41.035156 L 257.796875 29.316406 L 128.917969 29.316406 L 128.917969 41.035156 L 117.203125 41.035156 L 117.203125 52.75 L 105.484375 52.75 L 105.484375 64.46875 L 93.769531 64.46875 L 93.769531 76.183594 L 35.1875 76.183594 L 35.1875 87.898438 L 23.472656 87.898438 L 23.472656 99.617188 L 11.753906 99.617188 L 11.753906 310.511719 L 23.472656 310.511719 L 23.472656 322.226562 L 35.1875 322.226562 L 35.1875 333.941406 L 351.527344 333.941406 L 351.527344 322.226562 L 363.246094 322.226562 L 363.246094 310.511719 L 374.960938 310.511719 L 374.960938 99.617188 Z M 363.246094 99.617188 " fill-opacity="1" fill-rule="nonzero"/></g><path fill="#7a4900" d="M 351.527344 99.617188 L 351.527344 87.898438 L 281.230469 87.898438 L 281.230469 64.46875 L 269.515625 64.46875 L 269.515625 52.75 L 257.796875 52.75 L 257.796875 41.035156 L 128.917969 41.035156 L 128.917969 52.75 L 117.203125 52.75 L 117.203125 64.46875 L 105.484375 64.46875 L 105.484375 87.898438 L 35.1875 87.898438 L 35.1875 99.617188 L 23.472656 99.617188 L 23.472656 310.511719 L 35.1875 310.511719 L 35.1875 322.226562 L 351.527344 322.226562 L 351.527344 310.511719 L 363.246094 310.511719 L 363.246094 99.617188 Z M 351.527344 99.617188 " fill-opacity="1" fill-rule="nonzero"/><path fill="#fff3c2" d="M 281.230469 169.914062 L 281.230469 240.210938 L 269.515625 240.210938 L 269.515625 263.644531 L 257.796875 263.644531 L 257.796875 275.359375 L 234.367188 275.359375 L 234.367188 287.078125 L 152.351562 287.078125 L 152.351562 275.359375 L 128.917969 275.359375 L 128.917969 263.644531 L 117.203125 263.644531 L 117.203125 240.210938 L 105.484375 240.210938 L 105.484375 169.914062 L 117.203125 169.914062 L 117.203125 146.480469 L 128.917969 146.480469 L 128.917969 134.765625 L 152.351562 134.765625 L 152.351562 123.046875 L 234.367188 123.046875 L 234.367188 134.765625 L 257.796875 134.765625 L 257.796875 146.480469 L 269.515625 146.480469 L 269.515625 169.914062 Z M 187.5 87.898438 L 222.648438 87.898438 L 222.648438 64.46875 L 164.066406 64.46875 L 164.066406 87.898438 Z M 187.5 87.898438 " fill-opacity="1" fill-rule="nonzero"/><path fill="#545454" d="M 234.367188 169.914062 L 234.367188 158.199219 L 152.351562 158.199219 L 152.351562 169.914062 L 140.632812 169.914062 L 140.632812 240.210938 L 152.351562 240.210938 L 152.351562 251.929688 L 234.367188 251.929688 L 234.367188 240.210938 L 246.082031 240.210938 L 246.082031 169.914062 Z M 234.367188 169.914062 " fill-opacity="1" fill-rule="nonzero"/><g clip-path="url(#c4eec1d7fd)"><path fill="#000000" d="M 374.960938 99.617188 L 374.960938 310.511719 L 363.246094 310.511719 L 363.246094 99.617188 Z M 351.527344 322.226562 L 363.246094 322.226562 L 363.246094 310.511719 L 351.527344 310.511719 Z M 363.246094 99.617188 L 363.246094 87.898438 L 351.527344 87.898438 L 351.527344 99.617188 Z M 328.097656 322.226562 L 35.1875 322.226562 L 35.1875 333.941406 L 351.527344 333.941406 L 351.527344 322.226562 Z M 281.230469 181.628906 L 281.230469 240.210938 L 292.945312 240.210938 L 292.945312 169.914062 L 281.230469 169.914062 Z M 281.230469 87.898438 L 351.527344 87.898438 L 351.527344 76.183594 L 292.945312 76.183594 L 292.945312 64.46875 L 281.230469 64.46875 Z M 269.515625 251.929688 L 269.515625 263.644531 L 281.230469 263.644531 L 281.230469 240.210938 L 269.515625 240.210938 Z M 269.515625 169.914062 L 281.230469 169.914062 L 281.230469 146.480469 L 269.515625 146.480469 Z M 281.230469 64.46875 L 281.230469 52.75 L 269.515625 52.75 L 269.515625 64.46875 Z M 257.796875 275.359375 L 269.515625 275.359375 L 269.515625 263.644531 L 257.796875 263.644531 Z M 269.515625 146.480469 L 269.515625 134.765625 L 257.796875 134.765625 L 257.796875 146.480469 Z M 269.515625 52.75 L 269.515625 41.035156 L 257.796875 41.035156 L 257.796875 52.75 Z M 246.082031 181.628906 L 246.082031 240.210938 L 257.796875 240.210938 L 257.796875 169.914062 L 246.082031 169.914062 Z M 234.367188 275.359375 L 234.367188 287.078125 L 257.796875 287.078125 L 257.796875 275.359375 Z M 234.367188 251.929688 L 246.082031 251.929688 L 246.082031 240.210938 L 234.367188 240.210938 Z M 246.082031 169.914062 L 246.082031 158.199219 L 234.367188 158.199219 L 234.367188 169.914062 Z M 246.082031 134.765625 L 257.796875 134.765625 L 257.796875 123.046875 L 234.367188 123.046875 L 234.367188 134.765625 Z M 222.648438 87.898438 L 234.367188 87.898438 L 234.367188 64.46875 L 222.648438 64.46875 Z M 210.933594 287.078125 L 152.351562 287.078125 L 152.351562 298.792969 L 234.367188 298.792969 L 234.367188 287.078125 Z M 210.933594 251.929688 L 152.351562 251.929688 L 152.351562 263.644531 L 234.367188 263.644531 L 234.367188 251.929688 Z M 199.214844 87.898438 L 164.066406 87.898438 L 164.066406 99.617188 L 222.648438 99.617188 L 222.648438 87.898438 Z M 187.5 64.46875 L 222.648438 64.46875 L 222.648438 52.75 L 164.066406 52.75 L 164.066406 64.46875 Z M 175.785156 158.199219 L 234.367188 158.199219 L 234.367188 146.480469 L 152.351562 146.480469 L 152.351562 158.199219 Z M 175.785156 123.046875 L 234.367188 123.046875 L 234.367188 111.332031 L 152.351562 111.332031 L 152.351562 123.046875 Z M 164.066406 76.183594 L 164.066406 64.46875 L 152.351562 64.46875 L 152.351562 87.898438 L 164.066406 87.898438 Z M 140.632812 275.359375 L 128.917969 275.359375 L 128.917969 287.078125 L 152.351562 287.078125 L 152.351562 275.359375 Z M 140.632812 240.210938 L 140.632812 251.929688 L 152.351562 251.929688 L 152.351562 240.210938 Z M 152.351562 158.199219 L 140.632812 158.199219 L 140.632812 169.914062 L 152.351562 169.914062 Z M 152.351562 134.765625 L 152.351562 123.046875 L 128.917969 123.046875 L 128.917969 134.765625 Z M 152.351562 41.035156 L 257.796875 41.035156 L 257.796875 29.316406 L 128.917969 29.316406 L 128.917969 41.035156 Z M 140.632812 216.777344 L 140.632812 169.914062 L 128.917969 169.914062 L 128.917969 240.210938 L 140.632812 240.210938 Z M 117.203125 263.644531 L 117.203125 275.359375 L 128.917969 275.359375 L 128.917969 263.644531 Z M 128.917969 134.765625 L 117.203125 134.765625 L 117.203125 146.480469 L 128.917969 146.480469 Z M 128.917969 41.035156 L 117.203125 41.035156 L 117.203125 52.75 L 128.917969 52.75 Z M 117.203125 240.210938 L 105.484375 240.210938 L 105.484375 263.644531 L 117.203125 263.644531 Z M 117.203125 158.199219 L 117.203125 146.480469 L 105.484375 146.480469 L 105.484375 169.914062 L 117.203125 169.914062 Z M 117.203125 52.75 L 105.484375 52.75 L 105.484375 64.46875 L 117.203125 64.46875 Z M 105.484375 216.777344 L 105.484375 169.914062 L 93.769531 169.914062 L 93.769531 240.210938 L 105.484375 240.210938 Z M 58.621094 87.898438 L 105.484375 87.898438 L 105.484375 64.46875 L 93.769531 64.46875 L 93.769531 76.183594 L 35.1875 76.183594 L 35.1875 87.898438 Z M 23.472656 310.511719 L 23.472656 322.226562 L 35.1875 322.226562 L 35.1875 310.511719 Z M 35.1875 87.898438 L 23.472656 87.898438 L 23.472656 99.617188 L 35.1875 99.617188 Z M 23.472656 287.078125 L 23.472656 99.617188 L 11.753906 99.617188 L 11.753906 310.511719 L 23.472656 310.511719 Z M 23.472656 287.078125 " fill-opacity="1" fill-rule="nonzero"/></g><g mask="url(#d233f91e1b)"><g transform="matrix(1, 0, 0, 1, 152, 157)"><g clip-path="url(#cfbd40d10b)"><g clip-path="url(#40e5112639)"><path fill="#000000" d="M 94.082031 12.914062 L 94.082031 83.210938 L 82.367188 83.210938 L 82.367188 94.929688 L 0.351562 94.929688 L 0.351562 83.210938 L 70.648438 83.210938 L 70.648438 71.496094 L 82.367188 71.496094 L 82.367188 24.628906 L 70.648438 24.628906 L 70.648438 12.914062 L 0.351562 12.914062 L 0.351562 1.199219 L 82.367188 1.199219 L 82.367188 12.914062 Z M 94.082031 12.914062 " fill-opacity="1" fill-rule="nonzero"/></g></g></g></g><g mask="url(#aed9bf1d1d)"><g transform="matrix(1, 0, 0, 1, 104, 122)"><g clip-path="url(#a8eb4bab02)"><g clip-path="url(#3383bd9cc9)"><path fill="#000000" d="M 118.648438 153.359375 L 118.648438 165.078125 L 48.351562 165.078125 L 48.351562 153.359375 Z M 60.066406 1.046875 L 48.351562 1.046875 L 48.351562 12.765625 L 60.066406 12.765625 Z M 36.632812 141.644531 L 24.917969 141.644531 L 24.917969 153.359375 L 48.351562 153.359375 L 48.351562 141.644531 Z M 48.351562 24.480469 L 48.351562 12.765625 L 24.917969 12.765625 L 24.917969 24.480469 Z M 24.917969 118.210938 L 13.203125 118.210938 L 13.203125 141.644531 L 24.917969 141.644531 Z M 24.917969 36.199219 L 24.917969 24.480469 L 13.203125 24.480469 L 13.203125 47.914062 L 24.917969 47.914062 Z M 13.203125 94.777344 L 13.203125 47.914062 L 1.484375 47.914062 L 1.484375 118.210938 L 13.203125 118.210938 Z M 13.203125 94.777344 " fill-opacity="1" fill-rule="nonzero"/></g></g></g></g><g mask="url(#55f821cc4e)"><g transform="matrix(1, 0, 0, 1, 23, 40)"><g clip-path="url(#1a90b94fab)"><g clip-path="url(#6d6169b2c8)"><path fill="#000000" d="M 105.917969 24.46875 L 94.203125 24.46875 L 94.203125 12.75 L 105.917969 12.75 Z M 94.203125 36.183594 L 94.203125 24.46875 L 82.484375 24.46875 L 82.484375 47.898438 L 94.203125 47.898438 Z M 12.1875 247.078125 L 12.1875 71.332031 L 23.902344 71.332031 L 23.902344 59.617188 L 82.484375 59.617188 L 82.484375 47.898438 L 12.1875 47.898438 L 12.1875 59.617188 L 0.472656 59.617188 L 0.472656 270.511719 L 12.1875 270.511719 Z M 105.917969 83.046875 L 94.203125 83.046875 L 94.203125 94.765625 L 105.917969 94.765625 Z M 117.632812 1.035156 L 105.917969 1.035156 L 105.917969 12.75 L 117.632812 12.75 Z M 117.632812 36.183594 L 117.632812 59.617188 L 129.351562 59.617188 L 129.351562 71.332031 L 187.933594 71.332031 L 187.933594 59.617188 L 141.066406 59.617188 L 141.066406 47.898438 L 129.351562 47.898438 L 129.351562 36.183594 Z M 223.082031 247.078125 L 211.367188 247.078125 L 211.367188 258.792969 L 223.082031 258.792969 Z M 94.203125 235.359375 L 94.203125 247.078125 L 105.917969 247.078125 L 105.917969 235.359375 Z M 199.648438 270.511719 L 199.648438 258.792969 L 129.351562 258.792969 L 129.351562 247.078125 L 105.917969 247.078125 L 105.917969 258.792969 L 117.632812 258.792969 L 117.632812 270.511719 L 12.1875 270.511719 L 12.1875 282.226562 L 316.8125 282.226562 L 316.8125 270.511719 Z M 82.484375 223.644531 L 82.484375 235.359375 L 94.203125 235.359375 L 94.203125 223.644531 Z M 82.484375 200.210938 L 70.769531 200.210938 L 70.769531 129.914062 L 59.054688 129.914062 L 59.054688 211.929688 L 70.769531 211.929688 L 70.769531 223.644531 L 82.484375 223.644531 Z M 94.203125 94.765625 L 82.484375 94.765625 L 82.484375 106.480469 L 94.203125 106.480469 Z M 82.484375 118.199219 L 82.484375 106.480469 L 70.769531 106.480469 L 70.769531 129.914062 L 82.484375 129.914062 Z M 82.484375 118.199219 " fill-opacity="1" fill-rule="nonzero"/></g></g></g></g><g mask="url(#182a1fffa5)"><g transform="matrix(1, 0, 0, 1, 163, 63)"><g clip-path="url(#b17f0145af)"><g clip-path="url(#3f23001962)"><path fill="#ffeb99" d="M 118.230469 106.914062 L 118.230469 177.210938 L 106.515625 177.210938 L 106.515625 106.914062 Z M 94.796875 188.929688 L 94.796875 200.644531 L 106.515625 200.644531 L 106.515625 177.210938 L 94.796875 177.210938 Z M 106.515625 83.480469 L 94.796875 83.480469 L 94.796875 106.914062 L 106.515625 106.914062 Z M 83.082031 71.765625 L 71.367188 71.765625 L 71.367188 83.480469 L 94.796875 83.480469 L 94.796875 71.765625 Z M 71.367188 200.644531 L 71.367188 212.359375 L 94.796875 212.359375 L 94.796875 200.644531 Z M 59.648438 224.078125 L 71.367188 224.078125 L 71.367188 212.359375 L 59.648438 212.359375 Z M 59.648438 60.046875 L 59.648438 71.765625 L 71.367188 71.765625 L 71.367188 60.046875 Z M 59.648438 24.898438 L 59.648438 1.46875 L 1.066406 1.46875 L 1.066406 13.183594 L 47.933594 13.183594 L 47.933594 24.898438 Z M 59.648438 24.898438 " fill-opacity="1" fill-rule="nonzero"/></g></g></g></g><g mask="url(#be5ad4930e)"><g transform="matrix(1, 0, 0, 1, 245, 40)"><g clip-path="url(#ebee7eebd6)"><g clip-path="url(#d06a3d9c5a)"><path fill="#ffeb99" d="M 118.246094 59.617188 L 118.246094 270.511719 L 106.527344 270.511719 L 106.527344 71.332031 L 94.8125 71.332031 L 94.8125 59.617188 L 36.230469 59.617188 L 36.230469 47.898438 L 106.527344 47.898438 L 106.527344 59.617188 Z M 94.8125 282.226562 L 106.527344 282.226562 L 106.527344 270.511719 L 94.8125 270.511719 Z M 36.230469 24.46875 L 24.515625 24.46875 L 24.515625 47.898438 L 36.230469 47.898438 Z M 12.796875 12.75 L 12.796875 24.46875 L 24.515625 24.46875 L 24.515625 12.75 Z M 1.082031 1.035156 L 1.082031 12.75 L 12.796875 12.75 L 12.796875 1.035156 Z M 1.082031 1.035156 " fill-opacity="1" fill-rule="nonzero"/></g></g></g></g><g mask="url(#bf379a98f9)"><g transform="matrix(1, 0, 0, 1, 175, 181)"><g clip-path="url(#9e73d3c887)"><g clip-path="url(#976796cc4a)"><path fill="#7a4900" d="M 47.648438 0.628906 L 47.648438 24.0625 L 12.5 24.0625 L 12.5 0.628906 Z M 0.785156 47.496094 L 12.5 47.496094 L 12.5 35.777344 L 0.785156 35.777344 Z M 0.785156 47.496094 " fill-opacity="1" fill-rule="nonzero"/></g></g></g></g><g mask="url(#7ad2f47492)"><g transform="matrix(1, 0, 0, 1, 163, 63)"><g clip-path="url(#bc731bccc1)"><g clip-path="url(#3148fb44e1)"><path fill="#000000" d="M 12.785156 1.46875 L 1.066406 1.46875 L 1.066406 13.183594 L 12.785156 13.183594 Z M 24.5 13.183594 L 12.785156 13.183594 L 12.785156 24.898438 L 24.5 24.898438 Z M 36.214844 1.46875 L 24.5 1.46875 L 24.5 13.183594 L 36.214844 13.183594 Z M 47.933594 13.183594 L 36.214844 13.183594 L 36.214844 24.898438 L 47.933594 24.898438 Z M 59.648438 1.46875 L 47.933594 1.46875 L 47.933594 13.183594 L 59.648438 13.183594 Z M 59.648438 1.46875 " fill-opacity="1" fill-rule="nonzero"/></g></g></g></g></svg>